<svg width="17" height="32" viewBox="0 0 17 32" fill="none" xmlns="http://www.w3.org/2000/svg">
<g clip-path="url(#clip0_129_1122)">
<path d="M4.91791 32C4.91275 31.8657 4.90241 31.7314 4.90241 31.5945C4.90241 27.0123 4.90241 22.4302 4.90241 17.8507V17.4116H0V11.7214H4.89983C4.89983 11.5612 4.89983 11.4398 4.89983 11.3184C4.905 9.83065 4.86884 8.33772 4.93083 6.85253C5.00573 5.05997 5.53523 3.41722 6.80087 2.07668C7.76431 1.059 8.96279 0.483006 10.3188 0.191134C11.4192 -0.04133 12.535 -0.0129177 13.6482 0.0284093C14.5523 0.0619875 15.4563 0.142058 16.3577 0.201466C16.4275 0.206632 16.4998 0.227295 16.585 0.242793V5.31568C16.4766 5.31568 16.3681 5.31568 16.2596 5.31568C15.1463 5.33118 14.0305 5.31568 12.9198 5.37251C11.6051 5.43966 10.8638 6.17063 10.807 7.4931C10.7502 8.86464 10.7863 10.2413 10.7838 11.6155C10.7838 11.6335 10.7967 11.6516 10.8199 11.7059H16.4016C16.1563 13.6198 15.9135 15.4899 15.6707 17.3961H10.8044C10.7941 17.5175 10.7786 17.6079 10.7786 17.6957C10.7786 22.3915 10.7786 27.0873 10.7786 31.783C10.7786 31.8554 10.7889 31.9277 10.7941 32H4.91791V32Z" fill="white"/>
</g>
<defs>
<clipPath id="clip0_129_1122">
<rect width="16.585" height="32" fill="white"/>
</clipPath>
</defs>
</svg>
