<svg width="33" height="32" viewBox="0 0 33 32" fill="none" xmlns="http://www.w3.org/2000/svg">
<path d="M11.7651 0H21.3326C22.0796 0.0414313 22.8267 0.0803515 23.5731 0.124922C24.88 0.202134 26.16 0.427495 27.3596 0.966729C30.3025 2.29065 31.8537 4.64846 32.3358 7.77527C32.4211 8.32768 32.4638 8.88638 32.526 9.44256V22.3245C32.5071 22.4677 32.4871 22.6102 32.4695 22.7539C32.3847 23.4557 32.3508 24.1689 32.2071 24.8588C31.5718 27.9165 29.8442 30.0891 26.9045 31.2342C25.4965 31.7822 24.0125 31.9322 22.5184 31.9473C19.1324 31.9818 15.7451 32.0132 12.359 31.9956C10.6955 31.9868 9.02315 31.9799 7.38724 31.5832C4.73752 30.9404 2.76954 29.4375 1.59942 26.9561C0.879392 25.4294 0.659053 23.7872 0.641476 22.1199C0.605067 18.6604 0.566775 15.2003 0.594396 11.7414C0.606323 10.2875 0.693579 8.82109 0.906385 7.38418C1.23721 5.14438 2.3163 3.285 4.1487 1.91023C5.71932 0.731952 7.53727 0.263654 9.46006 0.127433C10.2278 0.0734463 10.9968 0.042059 11.7651 0ZM16.5906 29.1877L16.5919 29.1387C17.4362 29.1387 18.2811 29.1638 19.1242 29.1337C20.9346 29.0684 22.7576 29.0898 24.5498 28.8657C27.0118 28.5574 28.6817 27.1444 29.2868 24.6943C29.5316 23.7043 29.6157 22.656 29.6333 21.6315C29.6886 18.4124 29.7005 15.1915 29.681 11.9718C29.6729 10.6723 29.6113 9.36409 29.4475 8.07596C29.1204 5.50785 27.5147 3.76585 24.9786 3.25989C23.8838 3.04143 22.7463 2.97552 21.6264 2.95731C18.8242 2.91086 16.02 2.91902 13.2171 2.92844C11.6139 2.93346 10.0062 2.91337 8.41737 3.19272C5.99113 3.61959 4.3276 5.16008 3.83168 7.57816C3.61762 8.62084 3.54731 9.70496 3.52472 10.7728C3.4701 13.3352 3.45001 15.9002 3.47826 18.4633C3.49835 20.2737 3.54606 22.091 3.71932 23.8914C3.88881 25.6516 4.71806 27.103 6.26169 28.0609C7.305 28.7087 8.47763 28.9674 9.68605 29.0107C11.9867 29.0929 14.2893 29.1312 16.5913 29.1883L16.5906 29.1877Z" fill="white"/>
<path d="M8.3501 16.0044C8.357 11.4627 12.0601 7.77213 16.5918 7.79097C21.1473 7.8098 24.8266 11.506 24.7983 16.0352C24.7701 20.5819 21.1015 24.2423 16.5773 24.2379C12.0362 24.2335 8.34382 20.538 8.35073 16.005L8.3501 16.0044ZM11.2478 16.0057C11.2434 18.9554 13.6125 21.3333 16.5629 21.3402C19.5158 21.3465 21.8937 18.9856 21.9057 16.0333C21.9176 13.0697 19.5397 10.683 16.5748 10.683C13.6251 10.683 11.2522 13.054 11.2478 16.0057V16.0057Z" fill="white"/>
<path d="M25.1657 5.54988C26.2398 5.56934 27.0646 6.435 27.0389 7.5166C27.0132 8.57185 26.1513 9.39545 25.0879 9.37976C24.0301 9.36406 23.1877 8.47957 23.2096 7.40738C23.231 6.35967 24.1042 5.53104 25.1657 5.54988V5.54988Z" fill="white"/>
</svg>
